<svg xmlns="http://www.w3.org/2000/svg" width="433.017" height="329.225" viewBox="0 0 433.017 329.225"><defs><style>.a{fill:#607d8b;stroke:#fff;stroke-width:2px}</style></defs><path d="M373.5-431a3.172,3.172,0,0,1-2.4,1c-1.4,0-2.1,1-2.6,3.7-.6,3.2-.9,3.5-1.8,2.2-2.7-3.5-5.5-3-14.2,2.7a6.494,6.494,0,0,1-4.9.8c-2.2-.5-2.7-.2-3.6,2.1-.6,1.5-1.3,2.5-1.7,2.1-.3-.3-1.1-.2-1.7.3-1.7,1.4-6.5.1-7.1-2-.4-1-1.2-2-1.8-2.1a36.589,36.589,0,0,1-3.7-.4,27.085,27.085,0,0,1-5.7-1.3c-2.9-.8-3.3-.7-3.3.8,0,2,3,5.1,4.8,5.1.7,0,1.2.4,1.2,1,0,.5.9,1,1.9,1,1.8,0,3.1,1.8,3.1,4.5,0,1-1.3,1.3-5,1-2.7-.2-5.2,0-5.5.5s-3.6,0-7.3-1.1c-7.9-2.4-8.2-2.4-14.7-1.1-2.9.6-5.4.7-5.9.2a2.57,2.57,0,0,0-2.8.1,5.019,5.019,0,0,1-3.2.6c-.8-.3-1.1.6-.8,2.9.5,3.8-1.9,8.4-4.3,8.4-.8,0-1.5.9-1.5,2a1.767,1.767,0,0,1-1.9,2c-3.4,0-4.9,1-4.4,3,.4,1.4-.2,2.2-2.1,3-1.4.5-2.6,1.4-2.6,1.9,0,1.7-7.6,4.9-10.3,4.4-2.3-.5-2.6-.2-3.2,3.3a17.245,17.245,0,0,1-1.6,5.6c-1.4,2.6-1.1,4.8.6,4.8q3.15,0-.6,5.1l-2.1,3,2.4,2.3c4,4,7.1,5.5,10.1,4.9,1.5-.3,2.7-.9,2.7-1.4,0-1.5,4.8-1,5.7.5.6,1.1,1.8,1.2,5.3.6,5.8-1.1,7.5.4,7.1,5.9-.2,3.1.3,4.4,2.1,6,1.3,1.1,3.4,2.9,4.7,4a8.454,8.454,0,0,0,3.4,2.1,5.268,5.268,0,0,1,2.6,1.3c.9.7,5.3,1.9,9.8,2.5,4.6.6,9.2,1.6,10.3,2.2,2.7,1.5,2.5,5-.5,7.9a7.387,7.387,0,0,0-2.4,7.6,23.815,23.815,0,0,1,.2,3.3c-.1,2,.3,2.3,2.2,1.8,1.6-.4,4.6.5,9.1,2.9,3.7,1.9,7.5,3.5,8.5,3.5,2.5,0,2.8,2.1.6,4.3-1.5,1.5-1.6,2.1-.6,3.4,1.1,1.3,1,1.7-.5,2.8-1,.8-1.5,1.8-1.2,2.4.8,1.2-2.2,6.1-3.7,6.1a3.564,3.564,0,0,0-2.1,1.6,5.6,5.6,0,0,1-2.6,1.8c-.8.2-3.4.7-5.8,1.1-2.8.5-4.7,1.5-5.4,2.9a11.132,11.132,0,0,1-2.7,3.3c-1.3,1-1.4,1.4-.2,2.2s.6,2.5-2.6,7c-.1.2-.9-.1-1.7-.8s-2.9-.9-5.3-.5c-3.9.6-4,.6-5.5,7.2-1.4,6.2-1.4,6.9.3,9.9a20.307,20.307,0,0,1,1.8,3.8c-.1.3.2,4.9.5,10.3.5,6.9,1.3,10.7,2.5,12.6,1.5,2.3,1.7,3.4.8,6.2-.8,2.6-.7,4,.3,5.9,1.1,2.1,1.1,2.7-.3,4.2-1.9,2.2-2,3.3-.3,5.3,1.8,2,2.6,5.9,1.5,6.6a1.88,1.88,0,0,0-.8,1.7c.3,2.4-.1,3.6-1.8,5.2-1.4,1.5-1.5,2.2-.4,5.3a63.905,63.905,0,0,0,2.9,7c1.4,2.6,1.4,3.6.4,5.2-1.7,2.8-1.5,3.8,1,4.2,2.4.3,7.1,6.4,6.2,7.9s.8,1,2-.6c.9-1.2,1.7-1.3,5-.3,2.2.7,4.1,2,4.4,3a2.46,2.46,0,0,0,2.3,1.8c1.1,0,1.9.4,1.9,1,0,.5,1.8,1.4,4,2s4,1.5,4,1.9c0,.5,1.4,1.4,3,2.1,1.7.7,3,1.7,3,2.3,0,1.9,3.4,3.6,5.3,2.6,1.9-1.1,5.7-.3,5.7,1,0,.5,1.7.8,3.8.7,3-.1,3.8-.5,4-2.4.2-1.2,1-2.2,1.8-2.2,1.8,0,1.8.9-.1,5.5-1.3,3-1.4,4-.3,5.2,1,1.2.9,1.8-.7,2.9-1.7,1.2-1.7,1.6-.4,4a14.056,14.056,0,0,1,1.4,4.3c0,1.2,1.1,1.6,4.5,1.8a43.646,43.646,0,0,1,9.3,1.4c3.7,1,5,1.1,5.5.2,1.2-1.9,5.2-.3,5.8,2.3.4,1.4,1.1,2.1,1.9,1.7,1.3-.5,2.4.2,6.5,3.9,1.2,1,4,1.8,7,2,3.7.2,5.2.7,5.6,2,.7,2.4,2.4,2.3,2.4,0,0-2.6,2.9-4.8,7.3-5.6,2.7-.5,4.1-1.4,4.9-3.2.6-1.3,1.7-2.4,2.4-2.4s2.8-2.1,4.6-4.8c5.1-7.3,4.8-15.1-.9-19.5-2.7-2.1-2.8-2.7-.9-5.2,1.3-1.8,1.4-1.8,5,.5l3.8,2.3,3.1-2.4a20.663,20.663,0,0,0,4.5-4.1c.7-1,3.1-2.1,5.4-2.4,2.7-.5,4.2-1.3,4.5-2.5.3-.9,2.1-3,4.1-4.6,4.4-3.5,13.2-5.1,15.5-2.9,2.5,2.6,10.8-.9,9-3.7-.3-.5.3-.7,1.3-.5,1.5.3,1.9,1.2,1.7,4.1-.2,3.2.1,3.9,2.1,4.7a5.093,5.093,0,0,1,3.1,3.8c.7,3.2,3.3,4.8,9.5,5.8,3,.5,4,1.1,4,2.5,0,1.1.5,1.9,1,1.9a5.806,5.806,0,0,1,2.8,1.8,41.263,41.263,0,0,0,4.6,3.6c2.3,1.5,3,1.6,3.7.5a5.664,5.664,0,0,0,.9-2.3c0-.4,1.1-.5,2.5-.2,2.7.7,9.5-1.9,9.5-3.6,0-.5.5-.6,1.1-.3.5.4,1.8,0,2.8-.9,1.7-1.6,2.1-1.5,4.9.9,2,1.7,2.8,3.1,2.5,4.4a1.893,1.893,0,0,0,1.4,2.5c3,1,6.6,6.4,6,9.2a6.159,6.159,0,0,0,1.4,4.6,6.667,6.667,0,0,1,1.9,3c0,.4.7.8,1.5.8s1.5-.4,1.5-.8c0-1.4,7.8-5.1,9.8-4.5,1.2.3,3-.6,5-2.6,1.7-1.7,3.5-3.1,4-3.1.6,0,1.2,2.3,1.4,5.1.3,4.5,0,5.3-1.9,6.2-2.1.9-3.8,5.6-2.5,6.9.4.4,2.4-.8,4.5-2.7s4.3-3.5,5-3.5a6.7,6.7,0,0,0,3.1-1.5c1.5-1.1,2.3-1.2,3.4-.3,1.1,1,1.7.8,3-.9a9.3,9.3,0,0,1,4.2-2.6c2-.5,2.7-.1,3.6,1.8.6,1.3.8,2.9.4,3.5-1.3,2.1,1.1,8.4,4,11,7,6.2,6.6,6,8.5,3.8.9-1.1,2.4-1.8,3.4-1.5,1.9.5,4.1-2.1,4.1-4.8,0-.9.9-1.5,2.3-1.5,1.3,0,3.6-1.5,5.4-3.5,3.2-3.4,6.3-3.9,6.3-.9,0,.8.9,1.4,2,1.4s2-.5,2-1c0-.6,1.8-2.9,3.9-5.2,4.1-4.2,6.1-9,4.2-9.6-.7-.2-2.9-3-5.1-6.2a47.719,47.719,0,0,0-6.7-8c-2.2-1.7-2.4-2.3-1.3-3,.8-.5,1.5-2.5,1.6-4.4a9.365,9.365,0,0,1,1.7-5.4,7.365,7.365,0,0,0,1.7-4.5c0-2.6-.3-2.7-4.8-2.7-2.7,0-5.2-.3-5.6-.7-.3-.4-2.8-.6-5.4-.4-3.4.2-5.2-.2-6.1-1.3a4.408,4.408,0,0,0-2.6-1.6c-1.7,0-4.6-6.9-4.5-11,0-1.9-.1-4.9-.3-6.5-.1-2.3.2-2.9,1.3-2.6a18.267,18.267,0,0,0,3.5.3c1.1-.1,2.7-.2,3.6-.3,2.1-.1,1.3-3.9-.7-3.9-1.7,0-1.8-3.2-.2-4.8.8-.8.8-1.2.1-1.2-1.4,0-6.3-7.5-6.3-9.8a4.688,4.688,0,0,0-1.1-2.9c-1.5-1.5.8-5,3.7-5.7a8.1,8.1,0,0,1,5,.6c2.2,1,2.8,1,3.9-.5s1.7-1.5,8.1-.2c8.7,1.8,8.2,1.9,7.7-.8-.4-1.7.2-2.6,2.2-3.5,1.4-.7,2.5-1.8,2.4-2.4-.4-3.3.2-4.8,2-4.8,2.8,0,3.5-1.7,2.3-5.9-2.5-8.8-3.1-11.5-2.6-12,.3-.4,3.9-.5,7.9-.3,7.6.3,10.3-1,7.2-3.3-2-1.4-1.2-5.1,1.7-8.2,1.7-1.6,3.3-2.1,7-2.1,5.6.1,7.6-1.6,7.6-6.5,0-1.7,1.2-5.5,2.8-8.6a38.1,38.1,0,0,0,3.3-12.1,56.985,56.985,0,0,1,3.3-13.4c1.4-3.8,2.6-7.9,2.6-9.2,0-1.2.5-2.6,1.1-2.9,1.3-.8.2-8.3-1.5-10.4-.6-.8-2.9-2.2-5.1-3.2-3.8-1.7-8.5-6.6-8.5-8.8a4.873,4.873,0,0,0-1.6-2.5c-1.4-1.5-1.8-1.4-4.4.4a11.017,11.017,0,0,1-5.1,2c-2.4,0-10.9-3-16.2-5.6a12.956,12.956,0,0,0-4.6-1.4c-2.4,0-4.1-2-4.1-4.8,0-2.1-.3-2.3-4.7-2-4.7.3-4.8.4-5.1,3.8-.7,6.8-5.4,8.5-12,4.3-1.7-1.1-3.1-1.2-5.5-.4a31.322,31.322,0,0,1-8,.8c-3.6,0-5.1.4-6.2,1.9-.8,1-1.5,1.5-1.5,1s-1.1,0-2.3,1.3c-2,1.8-2.8,2-5.1,1.1-2.1-.8-2.8-.7-3.3.5-.8,2.4-6.4,5-7.3,3.5-.4-.7-1,.1-1.4,2-.4,2.3-1,3.1-2.1,2.6-2.2-.8-5.4,2.2-4.8,4.5.3,1.1.4,1.9.2,1.9s-2.8-.7-5.8-1.5l-5.3-1.4.6,3.9.6,3.9-3.2-.5c-1.8-.3-4.5-.7-6-.9a14.569,14.569,0,0,1-3.9-1c-.8-.5-1-.4-.5.3.7,1.2-3,1.5-15.1,1.6-4.2,0-8.8-2.7-7.7-4.5.7-1.2,4.4-1.1,4.4.1,0,.5,1.1,1,2.5,1H526l-2-3.6c-1.1-1.9-1.8-3.8-1.6-4.2s-.7-2-2-3.7c-1.7-2.1-2.6-2.7-3.4-1.9-1.2,1.2-6,.6-6-.7,0-.5-.7-.9-1.5-.9a2.547,2.547,0,0,1-2.2-1.8c-.9-2.5-2.4-3.2-4.6-2.1-3.8,2.1-13.4-2.2-16.3-7.3-2.5-4.4-2.8-5.2-1.6-5.6a1.874,1.874,0,0,0,1.2-1.8c0-.8.5-1.4,1-1.4.6,0,1-.7,1-1.5a1.538,1.538,0,0,0-1.5-1.5c-.9,0-2-1.1-2.5-2.4-1.6-4.3-4.1-6.6-6.1-5.6a1.982,1.982,0,0,1-2.9-.5,4.215,4.215,0,0,0-2.5-1.5c-.6,0-1.8-1.2-2.6-2.8-3.1-6.1-5.3-8.3-7.6-7.7-2.5.6-8.2-2.9-11.3-6.8a9.642,9.642,0,0,0-5.8-3.1,15.87,15.87,0,0,1-6.5-2.6,9.973,9.973,0,0,0-3.4-2c-1.5,0-4.7-4.1-7.4-9.3-1.8-3.8-3.5-5.4-7.1-7.3-3.8-1.9-4.8-3-4.8-4.9,0-1.6-.6-2.5-1.6-2.5-1.1,0-1.4-.5-.9-1.8,1.1-2.8,1.1-3.6,0-3.7-2.1-.1-3.5-1.7-3.5-4.1,0-2.2-.3-2.4-3.2-1.9a10.575,10.575,0,0,0-5.9,3.7c-2.4,2.9-2.8,3-5.7,2-2-.7-3.4-.7-3.7-.1a1.153,1.153,0,0,1-1.5.4c-.5-.3-1.3.2-1.9,1.2-.8,1.6-1.1,1.5-3-.7a10.532,10.532,0,0,1-2.1-4.3c0-1.5-.7-1.8-3.2-1.5-2.8.2-3.4-.1-3.6-2C375.8-432.1,374.6-432.7,373.5-431Z" class="a" transform="translate(-250.734 432.033)"/></svg>